<svg width="16" height="16" viewBox="0 0 16 16" fill="none" xmlns="http://www.w3.org/2000/svg">
<g opacity="0.5">
<path d="M11.6666 12.6669H5.99994C5.13452 12.6667 4.28621 12.4259 3.54979 11.9713C2.81338 11.5167 2.21789 10.8662 1.82986 10.0927C1.44183 9.31913 1.27654 8.45291 1.35247 7.59082C1.4284 6.72874 1.74256 5.90474 2.25984 5.21093C2.77712 4.51711 3.47714 3.9808 4.28168 3.66193C5.08622 3.34306 5.96357 3.25419 6.81571 3.40525C7.66785 3.55631 8.4612 3.94135 9.1071 4.51734C9.753 5.09334 10.226 5.83759 10.4733 6.66694H11.6666C12.4623 6.66694 13.2253 6.98301 13.7879 7.54562C14.3505 8.10823 14.6666 8.87129 14.6666 9.66694C14.6666 10.4626 14.3505 11.2257 13.7879 11.7883C13.2253 12.3509 12.4623 12.6669 11.6666 12.6669Z" stroke="#334155" stroke-width="2" stroke-linecap="round" stroke-linejoin="round"/>
</g>
</svg>
