<svg width="15" height="15" viewBox="0 0 15 15" fill="none" xmlns="http://www.w3.org/2000/svg">
<g clip-path="url(#clip0_104_325)">
<path fill-rule="evenodd" clip-rule="evenodd" d="M7.49979 0.877045C3.8421 0.877045 0.876953 3.84219 0.876953 7.49988C0.876953 11.1575 3.8421 14.1227 7.49979 14.1227C11.1574 14.1227 14.1226 11.1575 14.1226 7.49988C14.1226 3.84219 11.1574 0.877045 7.49979 0.877045ZM1.82695 7.49988C1.82695 4.36686 4.36677 1.82704 7.49979 1.82704C10.6327 1.82704 13.1726 4.36686 13.1726 7.49988C13.1726 10.6329 10.6327 13.1727 7.49979 13.1727C4.36677 13.1727 1.82695 10.6329 1.82695 7.49988ZM7.49993 9.49999C8.6045 9.49999 9.49993 8.60456 9.49993 7.49999C9.49993 6.39542 8.6045 5.49999 7.49993 5.49999C6.39536 5.49999 5.49993 6.39542 5.49993 7.49999C5.49993 8.60456 6.39536 9.49999 7.49993 9.49999Z" fill="black"/>
<rect x="5" y="5" width="5" height="5" rx="2.5" fill="#FF0000"/>
</g>
<defs>
<clipPath id="clip0_104_325">
<rect width="15" height="15" fill="white"/>
</clipPath>
</defs>
</svg>
